
<svg class="social-icon-sm" width="24" height="24" viewBox="0 0 24 24" fill="none"
xmlns="http://www.w3.org/2000/svg">
<circle cx="12" cy="12" r="10" fill="#0077B5" />
<path fill-rule="evenodd" clip-rule="evenodd"
d="M9.38737 7.14194C9.38737 7.76449 8.91336 8.2683 8.17208 8.2683C7.45968 8.2683 6.98566 7.76449 7.00033 7.14194C6.98566 6.48914 7.45967 6 8.18628 6C8.91335 6 9.37316 6.48914 9.38737 7.14194ZM7.05993 16.4095V9.15811H9.31356V16.4091H7.05993V16.4095Z"
fill="white" />
<path fill-rule="evenodd" clip-rule="evenodd"
d="M11.1199 11.4723C11.1199 10.5678 11.0901 9.79675 11.0603 9.15908H13.0178L13.1219 10.1525H13.1663C13.4629 9.69269 14.2042 8.99634 15.4053 8.99634C16.8879 8.99634 18 9.97508 18 12.1095V16.4105H15.7464V12.3919C15.7464 11.4572 15.4204 10.82 14.6049 10.82C13.9819 10.82 13.6115 11.25 13.4634 11.6648C13.4038 11.8134 13.3745 12.0206 13.3745 12.2287V16.4105H11.1208V11.4723H11.1199Z"
fill="white" />
</svg>